***************************************************************

[IMG]http://www.hotimg.org/images/67363952943939111394.png[/IMG]

***************************************************************

[IMG]http://www.hotimg.org/images/73549616348926753713.jpg[/IMG]

***************************************************************

FILM TITLE: J. Edgar (2011)

***************************************************************

Genre: Biography | Crime | Drama    

Rated R for brief strong language

Release:  20 January 2012 (Sweden)

Director: Clint Eastwood

Writer: Dustin Lance Black

Stars: Leonardo DiCaprio, Armie Hammer and Naomi Watts 

Country: USA 

Language: English 

Plot:
As the face of law enforcement in America for almost 50 years, 
J. Edgar Hoover 
was feared and admired, reviled and revered. 
But behind closed doors, he held 
secrets that would have destroyed 
his image, his career and his life.

IMDB Rating: 7.0/10 from 14,078 users   Metascore: 59/100
 
http://www.imdb.com/title/tt1616195/

****************************************************************

[URL=http://www.hotimg.org/viewer.php?file=17714500723267425204.png][IMG]http://www.hotimg.org/images/17714500723267425204_thumb.png[/IMG][/URL]
[URL=http://www.hotimg.org/viewer.php?file=47848200329476498858.png][IMG]http://www.hotimg.org/images/47848200329476498858_thumb.png[/IMG][/URL]
[URL=http://www.hotimg.org/viewer.php?file=03909622600017357736.png][IMG]http://www.hotimg.org/images/03909622600017357736_thumb.png[/IMG][/URL]
[URL=http://www.hotimg.org/viewer.php?file=27169297132106639430.png][IMG]http://www.hotimg.org/images/27169297132106639430_thumb.png[/IMG][/URL]
[URL=http://www.hotimg.org/viewer.php?file=48830284962556270558.png][IMG]http://www.hotimg.org/images/48830284962556270558_thumb.png[/IMG][/URL]

****************************************************************

General
Complete name                    : J.Edgar 2011 720p BDRip x264 ac3 (mp4) [GREYSHADOW].mp4
Format                           : MPEG-4
Format profile                   : Base Media
Codec ID                         : isom
File size                        : 3.82 GiB
Duration                         : 2h 16mn
Overall bit rate                 : 3992 Kbps
Encoded date                     : UTC 2012-02-16 00:45:19
Tagged date                      : UTC 2012-02-16 00:45:19

Video
ID                               : 1
Format                           : AVC
Format/Info                      : Advanced Video Codec
Format profile                   : High@L4.1
Format settings, CABAC           : Yes
Format settings, ReFrames        : 12 frames
Codec ID                         : avc1
Codec ID/Info                    : Advanced Video Coding
Duration                         : 2h 16mn
Bit rate                         : 3350 Kbps
Maximum bit rate                 : 18.0 Mbps
Width                            : 1280 pixels
Height                           : 528 pixels
Display aspect ratio             : 2.40:1
Frame rate mode                  : Constant
Frame rate                       : 23.976 fps
Color space                      : YUV
Chroma subsampling               : 4:2:0
Bit depth                        : 8 bits
Scan type                        : Progressive
Bits/(Pixel*Frame)               : 0.207
Stream size                      : 3.20 GiB (84%)
Title                            : AVC MPEG4 Video
Writing library                  : x264 core 120 r2146 bcd41db
Encoded date                     : UTC 2012-02-15 11:08:21
Tagged date                      : UTC 2012-02-16 00:47:22
Color primaries                  : BT.709-5, BT.1361, IEC 61966-2-4, SMPTE RP177
Transfer characteristics         : BT.709-5, BT.1361
Matrix coefficients              : BT.709-5, BT.1361, IEC 61966-2-4 709, SMPTE RP177

Audio
ID                               : 2
Format                           : AC-3
Format/Info                      : Audio Coding 3
Mode extension                   : CM (complete main)
Codec ID                         : ac-3
Duration                         : 2h 16mn
Bit rate mode                    : Constant
Bit rate                         : 640 Kbps
Channel(s)                       : 6 channels
Channel positions                : Front: L C R, Side: L R, LFE
Sampling rate                    : 48.0 KHz
Bit depth                        : 16 bits
Compression mode                 : Lossy
Stream size                      : 627 MiB (16%)
Title                            : AC3 5.1 640 kbps
Language                         : English
Encoded date                     : UTC 2012-02-16 00:46:14
Tagged date                      : UTC 2012-02-16 00:47:22

****************************************************************

Video Source: J.Edgar.2011.BluRay.1080p.AVC.DTS-HD.MA5.1-CHDBits (27.14GB)

Thanks: chdbits.org

****************************************************************

I provide a small sample, so please download this to check 
your compatibility first if you are unsure.

****************************************************************

Hash: AADFDC6E04F831ADB6F7CFD9C62B5B1F975779CF

Trackers:
.udp://tracker.1337x.org:80/announce

****************************************************************